<?xml version="1.0" encoding="UTF-8" standalone="no"?><svg xmlns="http://www.w3.org/2000/svg" xmlns:xlink="http://www.w3.org/1999/xlink" clip-rule="evenodd" stroke-miterlimit="10" viewBox="0 0 1024 768"><desc>SVG generated by Keynote</desc><defs></defs><g transform="matrix(1.00, 0.00, -0.00, -1.00, 0.0, 768.0)"><path d="M 0.0 768.0 L 1024.0 768.0 L 1024.0 0.0 L 0.0 0.0 Z M 0.0 768.0 " fill="#FEFFFF"></path><text xml:space="preserve" font-family="Helvetica-Light,Helvetica" font-size="20.0" fill="#000000" transform="matrix(1.00, 0.00, -0.00, -1.00, 926.0, 18.4)">n</text><text xml:space="preserve" font-family="Helvetica-Light,Helvetica" font-size="20.0" fill="#000000" transform="matrix(1.00, 0.00, -0.00, -1.00, 937.1, 18.4)">t</text><text xml:space="preserve" font-family="Helvetica-Light,Helvetica" font-size="20.0" fill="#000000" transform="matrix(1.00, 0.00, -0.00, -1.00, 942.7, 18.4)">h</text><text xml:space="preserve" font-family="Helvetica-Light,Helvetica" font-size="20.0" fill="#000000" transform="matrix(1.00, 0.00, -0.00, -1.00, 953.8, 18.4)">g</text><text xml:space="preserve" font-family="Helvetica-Light,Helvetica" font-size="20.0" fill="#000000" transform="matrix(1.00, 0.00, -0.00, -1.00, 966.0, 18.4)">e</text><text xml:space="preserve" font-family="Helvetica-Light,Helvetica" font-size="20.0" fill="#000000" transform="matrix(1.00, 0.00, -0.00, -1.00, 977.2, 18.4)">r</text><text xml:space="preserve" font-family="Helvetica-Light,Helvetica" font-size="20.0" fill="#000000" transform="matrix(1.00, 0.00, -0.00, -1.00, 983.8, 18.4)">g</text><text xml:space="preserve" font-family="Helvetica-Light,Helvetica" font-size="20.0" fill="#000000" transform="matrix(1.00, 0.00, -0.00, -1.00, 996.0, 18.4)">o</text><image xlink:href="../../747A2862-51A0-448D-B118-68AFCB54B581/assets/48743990F17E04D58F535A37E337795D.png" width="1139.00" height="926.00" transform="matrix(0.02, 0.00, -0.00, -0.02, 896.1, 33.7)"></image><text xml:space="preserve" font-family="Helvetica-Light,Helvetica" font-size="20.0" fill="#000000" transform="matrix(1.00, 0.00, -0.00, -1.00, 926.0, 18.4)">n</text><text xml:space="preserve" font-family="Helvetica-Light,Helvetica" font-size="20.0" fill="#000000" transform="matrix(1.00, 0.00, -0.00, -1.00, 937.1, 18.4)">t</text><text xml:space="preserve" font-family="Helvetica-Light,Helvetica" font-size="20.0" fill="#000000" transform="matrix(1.00, 0.00, -0.00, -1.00, 942.7, 18.4)">h</text><text xml:space="preserve" font-family="Helvetica-Light,Helvetica" font-size="20.0" fill="#000000" transform="matrix(1.00, 0.00, -0.00, -1.00, 953.8, 18.4)">g</text><text xml:space="preserve" font-family="Helvetica-Light,Helvetica" font-size="20.0" fill="#000000" transform="matrix(1.00, 0.00, -0.00, -1.00, 966.0, 18.4)">e</text><text xml:space="preserve" font-family="Helvetica-Light,Helvetica" font-size="20.0" fill="#000000" transform="matrix(1.00, 0.00, -0.00, -1.00, 977.2, 18.4)">r</text><text xml:space="preserve" font-family="Helvetica-Light,Helvetica" font-size="20.0" fill="#000000" transform="matrix(1.00, 0.00, -0.00, -1.00, 983.8, 18.4)">g</text><text xml:space="preserve" font-family="Helvetica-Light,Helvetica" font-size="20.0" fill="#000000" transform="matrix(1.00, 0.00, -0.00, -1.00, 996.0, 18.4)">o</text><image xlink:href="../../747A2862-51A0-448D-B118-68AFCB54B581/assets/48743990F17E04D58F535A37E337795D.png" width="1139.00" height="926.00" transform="matrix(0.02, 0.00, -0.00, -0.02, 896.1, 33.7)"></image><image xlink:href="../../747A2862-51A0-448D-B118-68AFCB54B581/assets/C5F953BD7E3FD832A4C73D22157D1CC8.png" width="512.00" height="512.00" transform="matrix(0.05, 0.00, -0.00, -0.05, 765.2, 35.9)"></image><text xml:space="preserve" font-family="Helvetica-Light,Helvetica" font-size="20.0" fill="#000000" transform="matrix(1.00, 0.00, -0.00, -1.00, 789.4, 18.4)">g</text><text xml:space="preserve" font-family="Helvetica-Light,Helvetica" font-size="20.0" fill="#000000" transform="matrix(1.00, 0.00, -0.00, -1.00, 801.7, 18.4)">e</text><text xml:space="preserve" font-family="Helvetica-Light,Helvetica" font-size="20.0" fill="#000000" transform="matrix(1.00, 0.00, -0.00, -1.00, 812.8, 18.4)">r</text><text xml:space="preserve" font-family="Helvetica-Light,Helvetica" font-size="20.0" fill="#000000" transform="matrix(1.00, 0.00, -0.00, -1.00, 819.4, 18.4)">g</text><text xml:space="preserve" font-family="Helvetica-Light,Helvetica" font-size="20.0" fill="#000000" transform="matrix(1.00, 0.00, -0.00, -1.00, 831.7, 18.4)">e</text><text xml:space="preserve" font-family="Helvetica-Light,Helvetica" font-size="20.0" fill="#000000" transform="matrix(1.00, 0.00, -0.00, -1.00, 842.8, 18.4)">l</text><text xml:space="preserve" font-family="Helvetica-Light,Helvetica" font-size="20.0" fill="#000000" transform="matrix(1.00, 0.00, -0.00, -1.00, 847.2, 18.4)">y</text><text xml:space="preserve" font-family="Helvetica-Light,Helvetica" font-size="20.0" fill="#000000" transform="matrix(1.00, 0.00, -0.00, -1.00, 857.2, 18.4)">k</text><text xml:space="preserve" font-family="Helvetica-Light,Helvetica" font-size="20.0" fill="#000000" transform="matrix(1.00, 0.00, -0.00, -1.00, 867.2, 18.4)">e</text><text xml:space="preserve" font-family="Helvetica-Bold,Helvetica" font-weight="bold" font-size="20.0" fill="#000000" transform="matrix(1.00, 0.00, -0.00, -1.00, 21.2, 18.4)">a</text><text xml:space="preserve" font-family="Helvetica-Bold,Helvetica" font-weight="bold" font-size="20.0" fill="#000000" transform="matrix(1.00, 0.00, -0.00, -1.00, 32.3, 18.4)">s</text><text xml:space="preserve" font-family="Helvetica-Bold,Helvetica" font-weight="bold" font-size="20.0" fill="#000000" transform="matrix(1.00, 0.00, -0.00, -1.00, 43.4, 18.4)">y</text><text xml:space="preserve" font-family="Helvetica-Bold,Helvetica" font-weight="bold" font-size="20.0" fill="#000000" transform="matrix(1.00, 0.00, -0.00, -1.00, 54.6, 18.4)">n</text><text xml:space="preserve" font-family="Helvetica-Bold,Helvetica" font-weight="bold" font-size="20.0" fill="#000000" transform="matrix(1.00, 0.00, -0.00, -1.00, 66.8, 18.4)">c</text><text xml:space="preserve" font-family="Helvetica-Bold,Helvetica" font-weight="bold" font-size="20.0" fill="#000000" transform="matrix(1.00, 0.00, -0.00, -1.00, 77.9, 18.4)"> </text><text xml:space="preserve" font-family="Helvetica-Bold,Helvetica" font-weight="bold" font-size="20.0" fill="#000000" transform="matrix(1.00, 0.00, -0.00, -1.00, 83.5, 18.4)">1</text><text xml:space="preserve" font-family="Helvetica-Bold,Helvetica" font-weight="bold" font-size="20.0" fill="#000000" transform="matrix(1.00, 0.00, -0.00, -1.00, 94.6, 18.4)">0</text><text xml:space="preserve" font-family="Helvetica-Bold,Helvetica" font-weight="bold" font-size="20.0" fill="#000000" transform="matrix(1.00, 0.00, -0.00, -1.00, 105.7, 18.4)">1</text><text xml:space="preserve" font-family="CourierNewPS-BoldMT,Courier New" font-weight="bold" font-size="25.0" fill="#000000" transform="matrix(1.00, 0.00, -0.00, -1.00, 98.9, 420.5)">f</text><text xml:space="preserve" font-family="CourierNewPS-BoldMT,Courier New" font-weight="bold" font-size="25.0" fill="#000000" transform="matrix(1.00, 0.00, -0.00, -1.00, 113.9, 420.5)">s</text><text xml:space="preserve" font-family="CourierNewPS-BoldMT,Courier New" font-weight="bold" font-size="25.0" fill="#000000" transform="matrix(1.00, 0.00, -0.00, -1.00, 128.9, 420.5)">.</text><text xml:space="preserve" font-family="CourierNewPS-BoldMT,Courier New" font-weight="bold" font-size="25.0" fill="#000000" transform="matrix(1.00, 0.00, -0.00, -1.00, 143.9, 420.5)">r</text><text xml:space="preserve" font-family="CourierNewPS-BoldMT,Courier New" font-weight="bold" font-size="25.0" fill="#000000" transform="matrix(1.00, 0.00, -0.00, -1.00, 159.0, 420.5)">e</text><text xml:space="preserve" font-family="CourierNewPS-BoldMT,Courier New" font-weight="bold" font-size="25.0" fill="#000000" transform="matrix(1.00, 0.00, -0.00, -1.00, 174.0, 420.5)">a</text><text xml:space="preserve" font-family="CourierNewPS-BoldMT,Courier New" font-weight="bold" font-size="25.0" fill="#000000" transform="matrix(1.00, 0.00, -0.00, -1.00, 189.0, 420.5)">d</text><text xml:space="preserve" font-family="CourierNewPS-BoldMT,Courier New" font-weight="bold" font-size="25.0" fill="#000000" transform="matrix(1.00, 0.00, -0.00, -1.00, 204.0, 420.5)">F</text><text xml:space="preserve" font-family="CourierNewPS-BoldMT,Courier New" font-weight="bold" font-size="25.0" fill="#000000" transform="matrix(1.00, 0.00, -0.00, -1.00, 219.0, 420.5)">i</text><text xml:space="preserve" font-family="CourierNewPS-BoldMT,Courier New" font-weight="bold" font-size="25.0" fill="#000000" transform="matrix(1.00, 0.00, -0.00, -1.00, 234.0, 420.5)">l</text><text xml:space="preserve" font-family="CourierNewPS-BoldMT,Courier New" font-weight="bold" font-size="25.0" fill="#000000" transform="matrix(1.00, 0.00, -0.00, -1.00, 249.0, 420.5)">e</text><text xml:space="preserve" font-family="CourierNewPS-BoldMT,Courier New" font-weight="bold" font-size="25.0" fill="#000000" transform="matrix(1.00, 0.00, -0.00, -1.00, 264.0, 420.5)">(</text><text xml:space="preserve" font-family="CourierNewPS-BoldMT,Courier New" font-weight="bold" font-size="25.0" fill="#000000" transform="matrix(1.00, 0.00, -0.00, -1.00, 279.0, 420.5)">‘</text><text xml:space="preserve" font-family="CourierNewPS-BoldMT,Courier New" font-weight="bold" font-size="25.0" fill="#000000" transform="matrix(1.00, 0.00, -0.00, -1.00, 294.0, 420.5)">/</text><text xml:space="preserve" font-family="CourierNewPS-BoldMT,Courier New" font-weight="bold" font-size="25.0" fill="#000000" transform="matrix(1.00, 0.00, -0.00, -1.00, 309.0, 420.5)">n</text><text xml:space="preserve" font-family="CourierNewPS-BoldMT,Courier New" font-weight="bold" font-size="25.0" fill="#000000" transform="matrix(1.00, 0.00, -0.00, -1.00, 324.0, 420.5)">o</text><text xml:space="preserve" font-family="CourierNewPS-BoldMT,Courier New" font-weight="bold" font-size="25.0" fill="#000000" transform="matrix(1.00, 0.00, -0.00, -1.00, 339.0, 420.5)">d</text><text xml:space="preserve" font-family="CourierNewPS-BoldMT,Courier New" font-weight="bold" font-size="25.0" fill="#000000" transform="matrix(1.00, 0.00, -0.00, -1.00, 354.0, 420.5)">e</text><text xml:space="preserve" font-family="CourierNewPS-BoldMT,Courier New" font-weight="bold" font-size="25.0" fill="#000000" transform="matrix(1.00, 0.00, -0.00, -1.00, 369.0, 420.5)">b</text><text xml:space="preserve" font-family="CourierNewPS-BoldMT,Courier New" font-weight="bold" font-size="25.0" fill="#000000" transform="matrix(1.00, 0.00, -0.00, -1.00, 384.0, 420.5)">p</text><text xml:space="preserve" font-family="CourierNewPS-BoldMT,Courier New" font-weight="bold" font-size="25.0" fill="#000000" transform="matrix(1.00, 0.00, -0.00, -1.00, 399.0, 420.5)">_</text><text xml:space="preserve" font-family="CourierNewPS-BoldMT,Courier New" font-weight="bold" font-size="25.0" fill="#000000" transform="matrix(1.00, 0.00, -0.00, -1.00, 414.0, 420.5)">i</text><text xml:space="preserve" font-family="CourierNewPS-BoldMT,Courier New" font-weight="bold" font-size="25.0" fill="#000000" transform="matrix(1.00, 0.00, -0.00, -1.00, 429.0, 420.5)">s</text><text xml:space="preserve" font-family="CourierNewPS-BoldMT,Courier New" font-weight="bold" font-size="25.0" fill="#000000" transform="matrix(1.00, 0.00, -0.00, -1.00, 444.0, 420.5)">.</text><text xml:space="preserve" font-family="CourierNewPS-BoldMT,Courier New" font-weight="bold" font-size="25.0" fill="#000000" transform="matrix(1.00, 0.00, -0.00, -1.00, 459.1, 420.5)">a</text><text xml:space="preserve" font-family="CourierNewPS-BoldMT,Courier New" font-weight="bold" font-size="25.0" fill="#000000" transform="matrix(1.00, 0.00, -0.00, -1.00, 474.1, 420.5)">w</text><text xml:space="preserve" font-family="CourierNewPS-BoldMT,Courier New" font-weight="bold" font-size="25.0" fill="#000000" transform="matrix(1.00, 0.00, -0.00, -1.00, 489.1, 420.5)">s</text><text xml:space="preserve" font-family="CourierNewPS-BoldMT,Courier New" font-weight="bold" font-size="25.0" fill="#000000" transform="matrix(1.00, 0.00, -0.00, -1.00, 504.1, 420.5)">m</text><text xml:space="preserve" font-family="CourierNewPS-BoldMT,Courier New" font-weight="bold" font-size="25.0" fill="#000000" transform="matrix(1.00, 0.00, -0.00, -1.00, 519.1, 420.5)">e</text><text xml:space="preserve" font-family="CourierNewPS-BoldMT,Courier New" font-weight="bold" font-size="25.0" fill="#000000" transform="matrix(1.00, 0.00, -0.00, -1.00, 534.1, 420.5)">’</text><text xml:space="preserve" font-family="CourierNewPS-BoldMT,Courier New" font-weight="bold" font-size="25.0" fill="#000000" transform="matrix(1.00, 0.00, -0.00, -1.00, 549.0, 420.5)">,</text><text xml:space="preserve" font-family="CourierNewPS-BoldMT,Courier New" font-weight="bold" font-size="25.0" fill="#000000" transform="matrix(1.00, 0.00, -0.00, -1.00, 564.0, 420.5)"> </text><text xml:space="preserve" font-family="CourierNewPS-BoldMT,Courier New" font-weight="bold" font-size="25.0" fill="#000000" transform="matrix(1.00, 0.00, -0.00, -1.00, 579.0, 420.5)">f</text><text xml:space="preserve" font-family="CourierNewPS-BoldMT,Courier New" font-weight="bold" font-size="25.0" fill="#000000" transform="matrix(1.00, 0.00, -0.00, -1.00, 594.0, 420.5)">u</text><text xml:space="preserve" font-family="CourierNewPS-BoldMT,Courier New" font-weight="bold" font-size="25.0" fill="#000000" transform="matrix(1.00, 0.00, -0.00, -1.00, 609.0, 420.5)">n</text><text xml:space="preserve" font-family="CourierNewPS-BoldMT,Courier New" font-weight="bold" font-size="25.0" fill="#000000" transform="matrix(1.00, 0.00, -0.00, -1.00, 624.0, 420.5)">c</text><text xml:space="preserve" font-family="CourierNewPS-BoldMT,Courier New" font-weight="bold" font-size="25.0" fill="#000000" transform="matrix(1.00, 0.00, -0.00, -1.00, 639.0, 420.5)">t</text><text xml:space="preserve" font-family="CourierNewPS-BoldMT,Courier New" font-weight="bold" font-size="25.0" fill="#000000" transform="matrix(1.00, 0.00, -0.00, -1.00, 654.0, 420.5)">i</text><text xml:space="preserve" font-family="CourierNewPS-BoldMT,Courier New" font-weight="bold" font-size="25.0" fill="#000000" transform="matrix(1.00, 0.00, -0.00, -1.00, 669.0, 420.5)">o</text><text xml:space="preserve" font-family="CourierNewPS-BoldMT,Courier New" font-weight="bold" font-size="25.0" fill="#000000" transform="matrix(1.00, 0.00, -0.00, -1.00, 684.1, 420.5)">n</text><text xml:space="preserve" font-family="CourierNewPS-BoldMT,Courier New" font-weight="bold" font-size="25.0" fill="#000000" transform="matrix(1.00, 0.00, -0.00, -1.00, 699.1, 420.5)"> </text><text xml:space="preserve" font-family="CourierNewPS-BoldMT,Courier New" font-weight="bold" font-size="25.0" fill="#000000" transform="matrix(1.00, 0.00, -0.00, -1.00, 714.1, 420.5)">(</text><text xml:space="preserve" font-family="CourierNewPS-BoldMT,Courier New" font-weight="bold" font-size="25.0" fill="#000000" transform="matrix(1.00, 0.00, -0.00, -1.00, 729.1, 420.5)">e</text><text xml:space="preserve" font-family="CourierNewPS-BoldMT,Courier New" font-weight="bold" font-size="25.0" fill="#000000" transform="matrix(1.00, 0.00, -0.00, -1.00, 744.1, 420.5)">r</text><text xml:space="preserve" font-family="CourierNewPS-BoldMT,Courier New" font-weight="bold" font-size="25.0" fill="#000000" transform="matrix(1.00, 0.00, -0.00, -1.00, 759.1, 420.5)">r</text><text xml:space="preserve" font-family="CourierNewPS-BoldMT,Courier New" font-weight="bold" font-size="25.0" fill="#000000" transform="matrix(1.00, 0.00, -0.00, -1.00, 774.1, 420.5)">,</text><text xml:space="preserve" font-family="CourierNewPS-BoldMT,Courier New" font-weight="bold" font-size="25.0" fill="#000000" transform="matrix(1.00, 0.00, -0.00, -1.00, 789.1, 420.5)"> </text><text xml:space="preserve" font-family="CourierNewPS-BoldMT,Courier New" font-weight="bold" font-size="25.0" fill="#000000" transform="matrix(1.00, 0.00, -0.00, -1.00, 804.1, 420.5)">d</text><text xml:space="preserve" font-family="CourierNewPS-BoldMT,Courier New" font-weight="bold" font-size="25.0" fill="#000000" transform="matrix(1.00, 0.00, -0.00, -1.00, 819.1, 420.5)">a</text><text xml:space="preserve" font-family="CourierNewPS-BoldMT,Courier New" font-weight="bold" font-size="25.0" fill="#000000" transform="matrix(1.00, 0.00, -0.00, -1.00, 834.1, 420.5)">t</text><text xml:space="preserve" font-family="CourierNewPS-BoldMT,Courier New" font-weight="bold" font-size="25.0" fill="#000000" transform="matrix(1.00, 0.00, -0.00, -1.00, 849.1, 420.5)">a</text><text xml:space="preserve" font-family="CourierNewPS-BoldMT,Courier New" font-weight="bold" font-size="25.0" fill="#000000" transform="matrix(1.00, 0.00, -0.00, -1.00, 864.1, 420.5)">)</text><text xml:space="preserve" font-family="CourierNewPS-BoldMT,Courier New" font-weight="bold" font-size="25.0" fill="#000000" transform="matrix(1.00, 0.00, -0.00, -1.00, 879.1, 420.5)"> </text><text xml:space="preserve" font-family="CourierNewPS-BoldMT,Courier New" font-weight="bold" font-size="25.0" fill="#000000" transform="matrix(1.00, 0.00, -0.00, -1.00, 894.1, 420.5)">{</text><text xml:space="preserve" font-family="CourierNewPS-BoldMT,Courier New" font-weight="bold" font-size="25.0" fill="#000000" transform="matrix(1.00, 0.00, -0.00, -1.00, 909.1, 420.5)"> </text><text xml:space="preserve" font-family="CourierNewPS-BoldMT,Courier New" font-weight="bold" font-size="25.0" fill="#000000" transform="matrix(1.00, 0.00, -0.00, -1.00, 98.9, 391.5)"> </text><text xml:space="preserve" font-family="CourierNewPS-BoldMT,Courier New" font-weight="bold" font-size="25.0" fill="#000000" transform="matrix(1.00, 0.00, -0.00, -1.00, 113.9, 391.5)"> </text><text xml:space="preserve" font-family="CourierNewPS-BoldMT,Courier New" font-weight="bold" font-size="25.0" fill="#000000" transform="matrix(1.00, 0.00, -0.00, -1.00, 128.9, 391.5)">i</text><text xml:space="preserve" font-family="CourierNewPS-BoldMT,Courier New" font-weight="bold" font-size="25.0" fill="#000000" transform="matrix(1.00, 0.00, -0.00, -1.00, 143.9, 391.5)">f</text><text xml:space="preserve" font-family="CourierNewPS-BoldMT,Courier New" font-weight="bold" font-size="25.0" fill="#000000" transform="matrix(1.00, 0.00, -0.00, -1.00, 159.0, 391.5)"> </text><text xml:space="preserve" font-family="CourierNewPS-BoldMT,Courier New" font-weight="bold" font-size="25.0" fill="#000000" transform="matrix(1.00, 0.00, -0.00, -1.00, 174.0, 391.5)">(</text><text xml:space="preserve" font-family="CourierNewPS-BoldMT,Courier New" font-weight="bold" font-size="25.0" fill="#000000" transform="matrix(1.00, 0.00, -0.00, -1.00, 189.0, 391.5)">e</text><text xml:space="preserve" font-family="CourierNewPS-BoldMT,Courier New" font-weight="bold" font-size="25.0" fill="#000000" transform="matrix(1.00, 0.00, -0.00, -1.00, 204.0, 391.5)">r</text><text xml:space="preserve" font-family="CourierNewPS-BoldMT,Courier New" font-weight="bold" font-size="25.0" fill="#000000" transform="matrix(1.00, 0.00, -0.00, -1.00, 219.0, 391.5)">r</text><text xml:space="preserve" font-family="CourierNewPS-BoldMT,Courier New" font-weight="bold" font-size="25.0" fill="#000000" transform="matrix(1.00, 0.00, -0.00, -1.00, 234.0, 391.5)">)</text><text xml:space="preserve" font-family="CourierNewPS-BoldMT,Courier New" font-weight="bold" font-size="25.0" fill="#000000" transform="matrix(1.00, 0.00, -0.00, -1.00, 249.0, 391.5)"> </text><text xml:space="preserve" font-family="CourierNewPS-BoldMT,Courier New" font-weight="bold" font-size="25.0" fill="#000000" transform="matrix(1.00, 0.00, -0.00, -1.00, 264.0, 391.5)">{</text><text xml:space="preserve" font-family="CourierNewPS-BoldMT,Courier New" font-weight="bold" font-size="25.0" fill="#000000" transform="matrix(1.00, 0.00, -0.00, -1.00, 279.0, 391.5)"> </text><text xml:space="preserve" font-family="CourierNewPS-BoldMT,Courier New" font-weight="bold" font-size="25.0" fill="#000000" transform="matrix(1.00, 0.00, -0.00, -1.00, 294.0, 391.5)">r</text><text xml:space="preserve" font-family="CourierNewPS-BoldMT,Courier New" font-weight="bold" font-size="25.0" fill="#000000" transform="matrix(1.00, 0.00, -0.00, -1.00, 309.0, 391.5)">e</text><text xml:space="preserve" font-family="CourierNewPS-BoldMT,Courier New" font-weight="bold" font-size="25.0" fill="#000000" transform="matrix(1.00, 0.00, -0.00, -1.00, 324.0, 391.5)">t</text><text xml:space="preserve" font-family="CourierNewPS-BoldMT,Courier New" font-weight="bold" font-size="25.0" fill="#000000" transform="matrix(1.00, 0.00, -0.00, -1.00, 339.0, 391.5)">u</text><text xml:space="preserve" font-family="CourierNewPS-BoldMT,Courier New" font-weight="bold" font-size="25.0" fill="#000000" transform="matrix(1.00, 0.00, -0.00, -1.00, 354.0, 391.5)">r</text><text xml:space="preserve" font-family="CourierNewPS-BoldMT,Courier New" font-weight="bold" font-size="25.0" fill="#000000" transform="matrix(1.00, 0.00, -0.00, -1.00, 369.0, 391.5)">n</text><text xml:space="preserve" font-family="CourierNewPS-BoldMT,Courier New" font-weight="bold" font-size="25.0" fill="#000000" transform="matrix(1.00, 0.00, -0.00, -1.00, 384.0, 391.5)"> </text><text xml:space="preserve" font-family="CourierNewPS-BoldMT,Courier New" font-weight="bold" font-size="25.0" fill="#000000" transform="matrix(1.00, 0.00, -0.00, -1.00, 399.0, 391.5)">c</text><text xml:space="preserve" font-family="CourierNewPS-BoldMT,Courier New" font-weight="bold" font-size="25.0" fill="#000000" transform="matrix(1.00, 0.00, -0.00, -1.00, 414.0, 391.5)">o</text><text xml:space="preserve" font-family="CourierNewPS-BoldMT,Courier New" font-weight="bold" font-size="25.0" fill="#000000" transform="matrix(1.00, 0.00, -0.00, -1.00, 429.0, 391.5)">n</text><text xml:space="preserve" font-family="CourierNewPS-BoldMT,Courier New" font-weight="bold" font-size="25.0" fill="#000000" transform="matrix(1.00, 0.00, -0.00, -1.00, 444.0, 391.5)">s</text><text xml:space="preserve" font-family="CourierNewPS-BoldMT,Courier New" font-weight="bold" font-size="25.0" fill="#000000" transform="matrix(1.00, 0.00, -0.00, -1.00, 459.1, 391.5)">o</text><text xml:space="preserve" font-family="CourierNewPS-BoldMT,Courier New" font-weight="bold" font-size="25.0" fill="#000000" transform="matrix(1.00, 0.00, -0.00, -1.00, 474.1, 391.5)">l</text><text xml:space="preserve" font-family="CourierNewPS-BoldMT,Courier New" font-weight="bold" font-size="25.0" fill="#000000" transform="matrix(1.00, 0.00, -0.00, -1.00, 489.1, 391.5)">e</text><text xml:space="preserve" font-family="CourierNewPS-BoldMT,Courier New" font-weight="bold" font-size="25.0" fill="#000000" transform="matrix(1.00, 0.00, -0.00, -1.00, 504.1, 391.5)">.</text><text xml:space="preserve" font-family="CourierNewPS-BoldMT,Courier New" font-weight="bold" font-size="25.0" fill="#000000" transform="matrix(1.00, 0.00, -0.00, -1.00, 519.1, 391.5)">l</text><text xml:space="preserve" font-family="CourierNewPS-BoldMT,Courier New" font-weight="bold" font-size="25.0" fill="#000000" transform="matrix(1.00, 0.00, -0.00, -1.00, 534.1, 391.5)">o</text><text xml:space="preserve" font-family="CourierNewPS-BoldMT,Courier New" font-weight="bold" font-size="25.0" fill="#000000" transform="matrix(1.00, 0.00, -0.00, -1.00, 549.1, 391.5)">g</text><text xml:space="preserve" font-family="CourierNewPS-BoldMT,Courier New" font-weight="bold" font-size="25.0" fill="#000000" transform="matrix(1.00, 0.00, -0.00, -1.00, 564.1, 391.5)">(</text><text xml:space="preserve" font-family="CourierNewPS-BoldMT,Courier New" font-weight="bold" font-size="25.0" fill="#000000" transform="matrix(1.00, 0.00, -0.00, -1.00, 579.1, 391.5)">e</text><text xml:space="preserve" font-family="CourierNewPS-BoldMT,Courier New" font-weight="bold" font-size="25.0" fill="#000000" transform="matrix(1.00, 0.00, -0.00, -1.00, 594.1, 391.5)">r</text><text xml:space="preserve" font-family="CourierNewPS-BoldMT,Courier New" font-weight="bold" font-size="25.0" fill="#000000" transform="matrix(1.00, 0.00, -0.00, -1.00, 609.1, 391.5)">r</text><text xml:space="preserve" font-family="CourierNewPS-BoldMT,Courier New" font-weight="bold" font-size="25.0" fill="#000000" transform="matrix(1.00, 0.00, -0.00, -1.00, 624.1, 391.5)">)</text><text xml:space="preserve" font-family="CourierNewPS-BoldMT,Courier New" font-weight="bold" font-size="25.0" fill="#000000" transform="matrix(1.00, 0.00, -0.00, -1.00, 639.1, 391.5)"> </text><text xml:space="preserve" font-family="CourierNewPS-BoldMT,Courier New" font-weight="bold" font-size="25.0" fill="#000000" transform="matrix(1.00, 0.00, -0.00, -1.00, 654.1, 391.5)">}</text><text xml:space="preserve" font-family="CourierNewPS-BoldMT,Courier New" font-weight="bold" font-size="25.0" fill="#000000" transform="matrix(1.00, 0.00, -0.00, -1.00, 669.0, 391.5)">;</text><text xml:space="preserve" font-family="CourierNewPS-BoldMT,Courier New" font-weight="bold" font-size="25.0" fill="#000000" transform="matrix(1.00, 0.00, -0.00, -1.00, 684.0, 391.5)"> </text><text xml:space="preserve" font-family="CourierNewPS-BoldMT,Courier New" font-weight="bold" font-size="25.0" fill="#000000" transform="matrix(1.00, 0.00, -0.00, -1.00, 98.9, 362.5)"> </text><text xml:space="preserve" font-family="CourierNewPS-BoldMT,Courier New" font-weight="bold" font-size="25.0" fill="#000000" transform="matrix(1.00, 0.00, -0.00, -1.00, 113.9, 362.5)"> </text><text xml:space="preserve" font-family="CourierNewPS-BoldMT,Courier New" font-weight="bold" font-size="25.0" fill="#000000" transform="matrix(1.00, 0.00, -0.00, -1.00, 128.9, 362.5)">r</text><text xml:space="preserve" font-family="CourierNewPS-BoldMT,Courier New" font-weight="bold" font-size="25.0" fill="#000000" transform="matrix(1.00, 0.00, -0.00, -1.00, 143.9, 362.5)">e</text><text xml:space="preserve" font-family="CourierNewPS-BoldMT,Courier New" font-weight="bold" font-size="25.0" fill="#000000" transform="matrix(1.00, 0.00, -0.00, -1.00, 159.0, 362.5)">t</text><text xml:space="preserve" font-family="CourierNewPS-BoldMT,Courier New" font-weight="bold" font-size="25.0" fill="#000000" transform="matrix(1.00, 0.00, -0.00, -1.00, 174.0, 362.5)">u</text><text xml:space="preserve" font-family="CourierNewPS-BoldMT,Courier New" font-weight="bold" font-size="25.0" fill="#000000" transform="matrix(1.00, 0.00, -0.00, -1.00, 189.0, 362.5)">r</text><text xml:space="preserve" font-family="CourierNewPS-BoldMT,Courier New" font-weight="bold" font-size="25.0" fill="#000000" transform="matrix(1.00, 0.00, -0.00, -1.00, 204.0, 362.5)">n</text><text xml:space="preserve" font-family="CourierNewPS-BoldMT,Courier New" font-weight="bold" font-size="25.0" fill="#000000" transform="matrix(1.00, 0.00, -0.00, -1.00, 219.0, 362.5)"> </text><text xml:space="preserve" font-family="CourierNewPS-BoldMT,Courier New" font-weight="bold" font-size="25.0" fill="#000000" transform="matrix(1.00, 0.00, -0.00, -1.00, 234.0, 362.5)">c</text><text xml:space="preserve" font-family="CourierNewPS-BoldMT,Courier New" font-weight="bold" font-size="25.0" fill="#000000" transform="matrix(1.00, 0.00, -0.00, -1.00, 249.0, 362.5)">o</text><text xml:space="preserve" font-family="CourierNewPS-BoldMT,Courier New" font-weight="bold" font-size="25.0" fill="#000000" transform="matrix(1.00, 0.00, -0.00, -1.00, 264.0, 362.5)">n</text><text xml:space="preserve" font-family="CourierNewPS-BoldMT,Courier New" font-weight="bold" font-size="25.0" fill="#000000" transform="matrix(1.00, 0.00, -0.00, -1.00, 279.0, 362.5)">s</text><text xml:space="preserve" font-family="CourierNewPS-BoldMT,Courier New" font-weight="bold" font-size="25.0" fill="#000000" transform="matrix(1.00, 0.00, -0.00, -1.00, 294.0, 362.5)">o</text><text xml:space="preserve" font-family="CourierNewPS-BoldMT,Courier New" font-weight="bold" font-size="25.0" fill="#000000" transform="matrix(1.00, 0.00, -0.00, -1.00, 309.0, 362.5)">l</text><text xml:space="preserve" font-family="CourierNewPS-BoldMT,Courier New" font-weight="bold" font-size="25.0" fill="#000000" transform="matrix(1.00, 0.00, -0.00, -1.00, 324.0, 362.5)">e</text><text xml:space="preserve" font-family="CourierNewPS-BoldMT,Courier New" font-weight="bold" font-size="25.0" fill="#000000" transform="matrix(1.00, 0.00, -0.00, -1.00, 339.0, 362.5)">.</text><text xml:space="preserve" font-family="CourierNewPS-BoldMT,Courier New" font-weight="bold" font-size="25.0" fill="#000000" transform="matrix(1.00, 0.00, -0.00, -1.00, 354.0, 362.5)">l</text><text xml:space="preserve" font-family="CourierNewPS-BoldMT,Courier New" font-weight="bold" font-size="25.0" fill="#000000" transform="matrix(1.00, 0.00, -0.00, -1.00, 369.0, 362.5)">o</text><text xml:space="preserve" font-family="CourierNewPS-BoldMT,Courier New" font-weight="bold" font-size="25.0" fill="#000000" transform="matrix(1.00, 0.00, -0.00, -1.00, 384.0, 362.5)">g</text><text xml:space="preserve" font-family="CourierNewPS-BoldMT,Courier New" font-weight="bold" font-size="25.0" fill="#000000" transform="matrix(1.00, 0.00, -0.00, -1.00, 399.0, 362.5)">(</text><text xml:space="preserve" font-family="CourierNewPS-BoldMT,Courier New" font-weight="bold" font-size="25.0" fill="#000000" transform="matrix(1.00, 0.00, -0.00, -1.00, 414.0, 362.5)">d</text><text xml:space="preserve" font-family="CourierNewPS-BoldMT,Courier New" font-weight="bold" font-size="25.0" fill="#000000" transform="matrix(1.00, 0.00, -0.00, -1.00, 429.0, 362.5)">a</text><text xml:space="preserve" font-family="CourierNewPS-BoldMT,Courier New" font-weight="bold" font-size="25.0" fill="#000000" transform="matrix(1.00, 0.00, -0.00, -1.00, 444.0, 362.5)">t</text><text xml:space="preserve" font-family="CourierNewPS-BoldMT,Courier New" font-weight="bold" font-size="25.0" fill="#000000" transform="matrix(1.00, 0.00, -0.00, -1.00, 459.0, 362.5)">a</text><text xml:space="preserve" font-family="CourierNewPS-BoldMT,Courier New" font-weight="bold" font-size="25.0" fill="#000000" transform="matrix(1.00, 0.00, -0.00, -1.00, 474.0, 362.5)">)</text><text xml:space="preserve" font-family="CourierNewPS-BoldMT,Courier New" font-weight="bold" font-size="25.0" fill="#000000" transform="matrix(1.00, 0.00, -0.00, -1.00, 489.0, 362.5)">;</text><text xml:space="preserve" font-family="CourierNewPS-BoldMT,Courier New" font-weight="bold" font-size="25.0" fill="#000000" transform="matrix(1.00, 0.00, -0.00, -1.00, 504.0, 362.5)"> </text><text xml:space="preserve" font-family="CourierNewPS-BoldMT,Courier New" font-weight="bold" font-size="25.0" fill="#000000" transform="matrix(1.00, 0.00, -0.00, -1.00, 98.9, 333.5)">}</text><text xml:space="preserve" font-family="CourierNewPS-BoldMT,Courier New" font-weight="bold" font-size="25.0" fill="#000000" transform="matrix(1.00, 0.00, -0.00, -1.00, 113.9, 333.5)">)</text><text xml:space="preserve" font-family="CourierNewPS-BoldMT,Courier New" font-weight="bold" font-size="25.0" fill="#000000" transform="matrix(1.00, 0.00, -0.00, -1.00, 128.9, 333.5)">;</text><g opacity="0.73"><g><clipPath id="clip0x600000cafa20"><path d="M 0.0 0.0 L 1024.0 0.0 L 1024.0 768.0 L 0.0 768.0 Z M 0.0 0.0 "></path></clipPath><g clip-path="url(#clip0x600000cafa20)"><path d="M 0.0 0.0 L 170.3 0.0 " fill="none" stroke="#0B5C18" stroke-width="31.00" transform="matrix(0.73, 0.68, 0.68, -0.73, 903.4, 654.0)"></path></g></g></g><g opacity="0.73"><g><clipPath id="clip0x600000cafcc0"><path d="M 0.0 0.0 L 1024.0 0.0 L 1024.0 768.0 L 0.0 768.0 Z M 0.0 0.0 "></path></clipPath><g clip-path="url(#clip0x600000cafcc0)"><path d="M 0.0 0.0 L 89.4 0.0 " fill="none" stroke="#0B5C18" stroke-width="31.00" transform="matrix(0.71, -0.71, -0.71, -0.71, 841.1, 695.9)"></path></g></g></g></g></svg>